# xmcd CD database file
#
# Track frame offsets:
#	150
#	22557
#	48008
#	63867
#	81327
#	92162
#	108094
#	126547
#	141765
#	163648
#	183039
#	201050
#	214419
#	244973
#	272650
#	291965
#	314162
#	336705
#
# Disc length: 4729 seconds
#
# Revision: 0
# Processed by: cddbd v1.5.1PL2 Copyright (c) Steve Scherf et al.
# Submitted via: Feurio! 1.68 - http://www.feurio.com
#
DISCID=0d127712
DTITLE=Tommy Bolin - Gypsy Soul
DYEAR=1900
DGENRE=
TTITLE0=Gypsy Soul
TTITLE1=St James Infirmary
TTITLE2=Hello Again
TTITLE3=Lotus
TTITLE4=Shoebizzy
TTITLE5=High Flying Bird
TTITLE6=Sweet Burgundy
TTITLE7=The Grind
TTITLE8=People People
TTITLE9=Teaser
TTITLE10=Journey
TTITLE11=Homeward Strut
TTITLE12=Golden Rainbows
TTITLE13=You Keep On Moving
TTITLE14=Bustin' out for Rosey
TTITLE15=Alexis
TTITLE16=Standing In The Rain
TTITLE17=Gypsy Soul
EXTD=
EXTT0=
EXTT1=
EXTT2=
EXTT3=
EXTT4=
EXTT5=
EXTT6=
EXTT7=
EXTT8=
EXTT9=
EXTT10=
EXTT11=
EXTT12=
EXTT13=
EXTT14=
EXTT15=
EXTT16=
EXTT17=
PLAYORDER=
